<svg xmlns:dc="http://purl.org/dc/elements/1.1/" xmlns:cc="http://creativecommons.org/ns#" xmlns:rdf="http://www.w3.org/1999/02/22-rdf-syntax-ns#" xmlns:svg="http://www.w3.org/2000/svg" xmlns="http://www.w3.org/2000/svg" xmlns:sodipodi="http://sodipodi.sourceforge.net/DTD/sodipodi-0.dtd" xmlns:inkscape="http://www.inkscape.org/namespaces/inkscape" viewBox="0 0 100 125" version="1.1" x="0px" y="0px"><g transform="translate(0,-952.36216)"><path style="color:#FF9933;font-style:normal;font-variant:normal;font-weight:normal;font-stretch:normal;font-size:medium;line-height:normal;font-family:sans-serif;text-indent:0;text-align:start;text-decoration:none;text-decoration-line:none;text-decoration-style:solid;text-decoration-color:#FF9933;letter-spacing:normal;word-spacing:normal;text-transform:none;direction:ltr;block-progression:tb;writing-mode:lr-tb;baseline-shift:baseline;text-anchor:start;white-space:normal;clip-rule:nonzero;display:inline;overflow:visible;visibility:visible;opacity:1;isolation:auto;mix-blend-mode:normal;color-interpolation:sRGB;color-interpolation-filters:linearRGB;solid-color:#FF9933;solid-opacity:1;fill:#FF9933;fill-opacity:1;fill-rule:evenodd;stroke:none;stroke-width:1.5;stroke-linecap:round;stroke-linejoin:round;stroke-miterlimit:4;stroke-dasharray:none;stroke-dashoffset:0;stroke-opacity:1;color-rendering:auto;image-rendering:auto;shape-rendering:auto;text-rendering:auto;enable-background:accumulate" d="M 78.374525,968.71461 49.982911,983.93813 17.63532,968.63703 c -0.115164,-0.055 -0.242292,-0.0803 -0.369755,-0.0736 -0.35226,0.0201 -0.644847,0.27901 -0.707702,0.6262 l -0.68186,3.76912 -5.792828,-3.85659 c -0.1125821,-0.0768 -0.2436851,-0.12215 -0.3796931,-0.1312 -0.03363,-0.004 -0.06749,-0.006 -0.101386,-0.006 -0.362232,0.007 -0.6695297,0.26797 -0.7355333,0.62421 l -3.8208007,19.19951 c -0.1156835,0.5813 -0.029746,0.71683 0.4631923,1.02179 l 39.3371468,24.33623 -33.661612,20.6784 c -0.654808,0.4035 -0.369541,1.4125 0.399574,1.4134 l 5.55825,0 c 0.106049,0.02 0.215133,0.017 0.320057,-0.01 0.172997,-0.023 0.332958,-0.1042 0.453249,-0.2306 l 31.5226,-19.0126 30.934173,19.1378 c 0.157616,0.102 0.347285,0.1423 0.532766,0.1133 l 5.68349,0 c 0.766504,0 1.052156,-1.0061 0.401562,-1.4114 l -33.095053,-20.5273 40.734667,-24.57072 c 0.320395,-0.19262 0.454177,-0.58892 0.316081,-0.93632 l -7.583952,-19.06225 c -0.389473,-0.97894 -0.761156,-0.9184 -1.423356,-0.47313 l -5.067232,3.40732 -1.254384,-3.46695 c -0.321713,-0.88918 -0.573788,-0.83958 -1.242456,-0.48104 z m 0.05963,1.70162 5.633794,15.57543 -33.29981,18.76604 0,-19.50754 z m -60.550348,0.0258 31.357602,14.83592 0,19.47175 -34.061187,-19.35446 c 0.919256,-4.99502 1.804925,-9.97907 2.703585,-14.95321 z m 68.309238,0.48307 7.094921,17.82775 c -14.608278,8.8107 -29.244055,17.64185 -43.839811,26.44545 l -42.8279568,-26.49515 3.5265868,-17.72438 5.433012,3.61605 -2.818884,15.59133 c -0.11347,0.6276 -0.09998,0.86086 0.284274,1.07547 11.53927,6.44487 34.617807,19.33458 34.617807,19.33458 0.380966,0.2122 0.861986,0.063 1.055591,-0.328 l 1.262335,-2.5386 c 0.421863,0.8493 0.811344,1.7196 1.268327,2.5486 0.254993,0.4627 0.638512,0.5477 1.049624,0.3181 l 34.617786,-19.33464 c 0.326721,-0.18231 0.473175,-0.57454 0.3459,-0.92637 -1.946785,-5.4045 -3.900185,-10.7835 -5.856442,-16.19368 z"/></g></svg>
